<?xml version="1.0" encoding="UTF-8" standalone="no"?>
<!DOCTYPE svg PUBLIC "-//W3C//DTD SVG 1.1//EN" "http://www.w3.org/Graphics/SVG/1.1/DTD/svg11.dtd">
<svg width="100%" height="100%" viewBox="0 0 1920 1099" version="1.1" xmlns="http://www.w3.org/2000/svg" xmlns:xlink="http://www.w3.org/1999/xlink" xml:space="preserve" xmlns:serif="http://www.serif.com/" style="fill-rule:evenodd;clip-rule:evenodd;stroke-linejoin:round;stroke-miterlimit:2;">
    <g>
        <g opacity="0.08">
            <path d="M0,376.412C0,376.412 446.313,111.211 552.632,158.85C696.649,223.382 445.889,375.226 561.171,419.706C676.453,464.187 669.265,285.14 850.459,276.983C1031.65,268.827 1302.57,357.147 1443.57,257.999C1584.58,158.85 1611.22,23.516 1802.09,49.175C1843.9,54.795 1920,119.22 1920,119.22L1920,0L0,0L0,376.412ZM1125.49,189.141C1125.49,145.105 1179.77,173.539 1288.5,141.18C1397.24,108.82 1413.35,78.43 1462.8,99.813C1512.25,121.195 1409.7,213.504 1335.42,233.176C1261.14,252.848 1125.49,233.176 1125.49,189.141ZM663.231,49.722C694.574,22.476 733.249,15.574 749.543,34.318C765.837,53.062 753.619,90.4 722.277,117.646C690.934,144.892 652.259,151.794 635.965,133.05C619.671,114.306 631.889,76.968 663.231,49.722Z" style="fill:rgb(114,118,125);"/>
        </g>
        <rect x="0" y="0" width="1920" height="1099" style="fill:none;"/>
        <g transform="matrix(0.849991,0,0,0.849991,117.137,0)">
            <path d="M0,376.412C200.196,316.742 446.313,111.211 552.632,158.85C696.649,223.382 445.889,375.226 561.171,419.706C676.453,464.187 669.265,285.14 850.459,276.983C1031.65,268.827 1302.57,357.147 1443.57,257.999C1584.58,158.85 1611.22,23.516 1802.09,49.175C1843.9,54.795 1848.28,71.761 1920,119.22C2051.25,206.065 2121.04,0 2121.04,0L-137.809,0C-137.809,0 -184.052,431.271 0,376.412ZM1125.49,189.141C1125.49,145.105 1179.77,173.539 1288.5,141.18C1397.24,108.82 1413.35,78.43 1462.8,99.813C1512.25,121.195 1409.7,213.504 1335.42,233.176C1261.14,252.848 1125.49,233.176 1125.49,189.141ZM663.231,49.722C694.574,22.476 733.249,15.574 749.543,34.318C765.837,53.062 753.619,90.4 722.277,117.646C690.934,144.892 652.259,151.794 635.965,133.05C619.671,114.306 631.889,76.968 663.231,49.722Z" style="fill:rgb(54,57,63);"/>
        </g>
    </g>
</svg>
